<!--?xml version="1.0" encoding="utf-8"?-->
<!-- Generator: Adobe Illustrator 25.1.0, SVG Export Plug-In . SVG Version: 6.00 Build 0)  -->
<svg version="1.1" id="レイヤー_1" xmlns="http://www.w3.org/2000/svg" xmlns:xlink="http://www.w3.org/1999/xlink" x="0px" y="0px" viewBox="0 0 73 43" style="enable-background:new 0 0 73 43;" xml:space="preserve" width="73" height="43">
<style type="text/css">
	.st0{fill:#7AB984;}
	.st1{fill:#3C3C3C;}
	.st2{fill:#FFFFFF;}
@-webkit-keyframes animate-svg-fill-1{0%{fill:transparent}100%{fill:rgb(122,185,132)}}@keyframes animate-svg-fill-1{0%{fill:transparent}100%{fill:rgb(122,185,132)}}.svg-elem-1{-webkit-animation:animate-svg-fill-1 0.7s cubic-bezier(0.47,0,0.745,0.715) 2s both;animation:animate-svg-fill-1 0.7s cubic-bezier(0.47,0,0.745,0.715) 2s both}@-webkit-keyframes animate-svg-fill-2{0%{fill:transparent}100%{fill:rgb(122,185,132)}}@keyframes animate-svg-fill-2{0%{fill:transparent}100%{fill:rgb(122,185,132)}}.svg-elem-2{-webkit-animation:animate-svg-fill-2 0.7s cubic-bezier(0.47,0,0.745,0.715) 2.1s both;animation:animate-svg-fill-2 0.7s cubic-bezier(0.47,0,0.745,0.715) 2.1s both}@-webkit-keyframes animate-svg-fill-3{0%{fill:transparent}100%{fill:rgb(122,185,132)}}@keyframes animate-svg-fill-3{0%{fill:transparent}100%{fill:rgb(122,185,132)}}.svg-elem-3{-webkit-animation:animate-svg-fill-3 0.7s cubic-bezier(0.47,0,0.745,0.715) 2.2s both;animation:animate-svg-fill-3 0.7s cubic-bezier(0.47,0,0.745,0.715) 2.2s both}@-webkit-keyframes animate-svg-fill-4{0%{fill:transparent}100%{fill:rgb(60,60,60)}}@keyframes animate-svg-fill-4{0%{fill:transparent}100%{fill:rgb(60,60,60)}}.svg-elem-4{-webkit-animation:animate-svg-fill-4 0.7s cubic-bezier(0.47,0,0.745,0.715) 2.3s both;animation:animate-svg-fill-4 0.7s cubic-bezier(0.47,0,0.745,0.715) 2.3s both}@-webkit-keyframes animate-svg-fill-5{0%{fill:transparent}100%{fill:rgb(255,255,255)}}@keyframes animate-svg-fill-5{0%{fill:transparent}100%{fill:rgb(255,255,255)}}.svg-elem-5{-webkit-animation:animate-svg-fill-5 0.7s cubic-bezier(0.47,0,0.745,0.715) 2.4s both;animation:animate-svg-fill-5 0.7s cubic-bezier(0.47,0,0.745,0.715) 2.4s both}@-webkit-keyframes animate-svg-fill-6{0%{fill:transparent}100%{fill:rgb(255,255,255)}}@keyframes animate-svg-fill-6{0%{fill:transparent}100%{fill:rgb(255,255,255)}}.svg-elem-6{-webkit-animation:animate-svg-fill-6 0.7s cubic-bezier(0.47,0,0.745,0.715) 2.5s both;animation:animate-svg-fill-6 0.7s cubic-bezier(0.47,0,0.745,0.715) 2.5s both}@-webkit-keyframes animate-svg-fill-7{0%{fill:transparent}100%{fill:rgb(255,255,255)}}@keyframes animate-svg-fill-7{0%{fill:transparent}100%{fill:rgb(255,255,255)}}.svg-elem-7{-webkit-animation:animate-svg-fill-7 0.7s cubic-bezier(0.47,0,0.745,0.715) 2.6s both;animation:animate-svg-fill-7 0.7s cubic-bezier(0.47,0,0.745,0.715) 2.6s both}@-webkit-keyframes animate-svg-fill-8{0%{fill:transparent}100%{fill:rgb(255,255,255)}}@keyframes animate-svg-fill-8{0%{fill:transparent}100%{fill:rgb(255,255,255)}}.svg-elem-8{-webkit-animation:animate-svg-fill-8 0.7s cubic-bezier(0.47,0,0.745,0.715) 2.7s both;animation:animate-svg-fill-8 0.7s cubic-bezier(0.47,0,0.745,0.715) 2.7s both}@-webkit-keyframes animate-svg-fill-9{0%{fill:transparent}100%{fill:rgb(255,255,255)}}@keyframes animate-svg-fill-9{0%{fill:transparent}100%{fill:rgb(255,255,255)}}.svg-elem-9{-webkit-animation:animate-svg-fill-9 0.7s cubic-bezier(0.47,0,0.745,0.715) 2.8s both;animation:animate-svg-fill-9 0.7s cubic-bezier(0.47,0,0.745,0.715) 2.8s both}@-webkit-keyframes animate-svg-fill-10{0%{fill:transparent}100%{fill:rgb(255,255,255)}}@keyframes animate-svg-fill-10{0%{fill:transparent}100%{fill:rgb(255,255,255)}}.svg-elem-10{-webkit-animation:animate-svg-fill-10 0.7s cubic-bezier(0.47,0,0.745,0.715) 2.9s both;animation:animate-svg-fill-10 0.7s cubic-bezier(0.47,0,0.745,0.715) 2.9s both}@-webkit-keyframes animate-svg-fill-11{0%{fill:transparent}100%{fill:rgb(255,255,255)}}@keyframes animate-svg-fill-11{0%{fill:transparent}100%{fill:rgb(255,255,255)}}.svg-elem-11{-webkit-animation:animate-svg-fill-11 0.7s cubic-bezier(0.47,0,0.745,0.715) 3s both;animation:animate-svg-fill-11 0.7s cubic-bezier(0.47,0,0.745,0.715) 3s both}@-webkit-keyframes animate-svg-fill-12{0%{fill:transparent}100%{fill:rgb(255,255,255)}}@keyframes animate-svg-fill-12{0%{fill:transparent}100%{fill:rgb(255,255,255)}}.svg-elem-12{-webkit-animation:animate-svg-fill-12 0.7s cubic-bezier(0.47,0,0.745,0.715) 3.1s both;animation:animate-svg-fill-12 0.7s cubic-bezier(0.47,0,0.745,0.715) 3.1s both}@-webkit-keyframes animate-svg-fill-13{0%{fill:transparent}100%{fill:rgb(255,255,255)}}@keyframes animate-svg-fill-13{0%{fill:transparent}100%{fill:rgb(255,255,255)}}.svg-elem-13{-webkit-animation:animate-svg-fill-13 0.7s cubic-bezier(0.47,0,0.745,0.715) 3.2s both;animation:animate-svg-fill-13 0.7s cubic-bezier(0.47,0,0.745,0.715) 3.2s both}@-webkit-keyframes animate-svg-fill-14{0%{fill:transparent}100%{fill:rgb(255,255,255)}}@keyframes animate-svg-fill-14{0%{fill:transparent}100%{fill:rgb(255,255,255)}}.svg-elem-14{-webkit-animation:animate-svg-fill-14 0.7s cubic-bezier(0.47,0,0.745,0.715) 3.3s both;animation:animate-svg-fill-14 0.7s cubic-bezier(0.47,0,0.745,0.715) 3.3s both}
</style>
<path class="st0 svg-elem-1" d="M23.8,11.6c0.5,0,0.9-0.4,0.9-0.9c0-0.5-0.2-0.9-0.7-1.4c-0.8-0.7-2-1.3-3.4-1.7l-0.2,0.3
	c1.1,1.1,1.8,2.1,2.3,2.8C23.1,11.3,23.4,11.6,23.8,11.6z M26.4,9.5c0.5,0,0.9-0.3,0.9-0.9C27.2,8,27,7.5,26.4,7
	c-0.7-0.6-1.9-1-3.3-1.4L22.8,6c1.2,1.1,1.8,1.9,2.3,2.5C25.6,9.1,25.9,9.5,26.4,9.5z M12.9,10.4c1.3,1.2,1.8,2.2,3,2.2
	c0.7,0,1.2-0.7,1.2-1.3c0-1.6-1.5-2.4-3.2-2.9c-1.5-0.4-2.7-0.4-3.5-0.5l-0.1,0.5C11,8.8,11.9,9.5,12.9,10.4z M10.4,23.5
	c-1,0-1.8-1-2.4-1.5l-0.3,0.2c0,0.7,0.2,1.9,0.6,2.5c0.7,1.1,2.4,2.2,3.5,2.2c0.9,0,1.2-0.8,2-1.3c5.5-3.2,11.1-8.4,13.6-13.4
	L27,11.9C22.8,17,13.3,23.5,10.4,23.5z M9.9,15.9c1.2,1,1.7,2.1,2.9,2.1c1,0,1.3-0.8,1.3-1.4c0-1.5-1.7-2.5-3.5-2.9
	c-1.3-0.3-2.3-0.4-3.4-0.5L7,13.6C7.8,14.1,8.7,14.8,9.9,15.9z"></path>
<path class="st0 svg-elem-2" d="M37.5,28C43.8,28,49,22.8,49,16.5S43.8,5,37.5,5S26,10.2,26,16.5S31.2,28,37.5,28z M27.2,16.5
	c0-5.7,4.6-10.3,10.2-10.3s10.2,4.6,10.2,10.3s-4.6,10.2-10.2,10.2S27.2,22.2,27.2,16.5z"></path>
<path class="st0 svg-elem-3" d="M63,16.4c0.1-1.5,0.2-4.7,0.3-6.2c0-0.8,0.5-1,0.5-1.7c0-0.8-2.2-2-3.3-2c-0.6,0-1.7,0.6-2.3,1.1l0,0.4
	c0.6,0.2,1.1,0.3,1.5,0.6c0.5,0.3,0.5,0.5,0.6,1.1c0.1,1.4,0.1,4.8-0.1,6.7c-0.4,5-2.9,8.2-7.6,10.8l0.3,0.5
	C59,25.9,62.6,22.4,63,16.4z M51.2,9.3c0.4,0.2,0.5,0.4,0.5,0.9c0.2,1,0.2,3.7,0.2,4.9c0,1.7-0.4,2.4-0.4,3.1c0,1.5,0.8,2.7,1.6,2.7
	c0.9,0,1.4-0.5,1.4-1.9c0-1.7,0-6.1,0-7.2c0-1,0.6-1.4,0.6-2.1c0-0.9-2.3-2.1-3.4-2.1c-0.7,0-1.4,0.3-2,0.6v0.4
	C50.4,8.8,50.9,9,51.2,9.3z"></path>
<rect y="32" class="st1 svg-elem-4" width="73" height="11"></rect>
<path class="st2 svg-elem-5" d="M5,42.8V43H1.7v-0.2c0.3-0.1,0.6-0.2,0.7-0.3c0.1-0.1,0.2-0.4,0.2-0.8v-5.4H1.9c-0.4,0-0.8,0.1-1,0.3
	c-0.2,0.2-0.4,0.5-0.6,0.9H0.1l0.1-1.7h0.2C0.6,35.9,0.8,36,1.1,36h4.5c0.3,0,0.5,0,0.7-0.1h0.2l0.1,1.7H6.4
	c-0.1-0.4-0.3-0.7-0.6-0.9c-0.2-0.2-0.6-0.3-1-0.3H4.2v5.4c0,0.3,0.1,0.6,0.2,0.7C4.5,42.6,4.7,42.7,5,42.8z"></path>
<path class="st2 svg-elem-6" d="M10.6,36v0.2c-0.3,0.1-0.6,0.2-0.7,0.3c-0.1,0.1-0.2,0.4-0.2,0.8v4.5c0,0.3,0.1,0.5,0.2,0.7
	c0.1,0.1,0.4,0.2,0.7,0.3V43H7.3v-0.2c0.2-0.1,0.4-0.1,0.6-0.2c0.1-0.1,0.2-0.2,0.3-0.3c0.1-0.1,0.1-0.3,0.1-0.7v-4.5
	c0-0.3-0.1-0.5-0.2-0.7c-0.1-0.1-0.4-0.2-0.7-0.3V36H10.6z"></path>
<path class="st2 svg-elem-7" d="M16.2,42.8V43h-3.3v-0.2c0.3-0.1,0.6-0.2,0.7-0.3c0.1-0.1,0.2-0.4,0.2-0.8v-5.4H13c-0.4,0-0.8,0.1-1,0.3
	c-0.2,0.2-0.4,0.5-0.6,0.9h-0.2l0.1-1.7h0.2c0.2,0.1,0.4,0.1,0.7,0.1h4.5c0.3,0,0.5,0,0.7-0.1h0.2l0.1,1.7h-0.2
	c-0.1-0.4-0.3-0.7-0.6-0.9c-0.2-0.2-0.6-0.3-1-0.3h-0.7v5.4c0,0.3,0.1,0.6,0.2,0.7C15.6,42.6,15.8,42.7,16.2,42.8z"></path>
<path class="st2 svg-elem-8" d="M21.6,36v0.2c-0.4,0.1-0.6,0.2-0.7,0.3c-0.1,0.1-0.2,0.3-0.2,0.6v4.7c0,0.3,0.1,0.5,0.2,0.6
	c0.2,0.1,0.4,0.2,0.9,0.2c0.4,0,0.8-0.1,1-0.3c0.2-0.2,0.5-0.6,0.8-1.1h0.2L23.7,43h-5.4v-0.2c0.4-0.1,0.6-0.2,0.7-0.3
	c0.1-0.1,0.2-0.4,0.2-0.8v-4.5c0-0.3-0.1-0.5-0.2-0.7c-0.1-0.1-0.3-0.2-0.7-0.3V36H21.6z"></path>
<path class="st2 svg-elem-9" d="M29.1,38.4h0.2v2.2h-0.2c-0.1-0.6-0.4-0.9-1-0.9h-1.2v2.1c0,0.3,0.1,0.5,0.2,0.7c0.1,0.1,0.4,0.2,0.7,0.2h0.4
	c0.7,0,1.2-0.4,1.5-1.3h0.2L29.8,43h-5.3v-0.2c0.4-0.1,0.6-0.2,0.7-0.3c0.1-0.1,0.2-0.4,0.2-0.8v-4.5c0-0.3-0.1-0.6-0.2-0.7
	c-0.1-0.1-0.4-0.2-0.7-0.3V36h5.3v1.6h-0.2c-0.1-0.5-0.3-0.8-0.4-0.9c-0.2-0.2-0.4-0.2-0.8-0.2h-1.4v2.9h1.2c0.3,0,0.5-0.1,0.6-0.2
	C28.9,38.9,29,38.7,29.1,38.4z"></path>
<path class="st2 svg-elem-10" d="M42.6,36v0.2c-0.3,0.1-0.5,0.1-0.6,0.3c-0.1,0.1-0.2,0.3-0.2,0.6c0,0.1,0,0.2,0,0.3l0.6,4.4
	c0,0.3,0.2,0.6,0.3,0.7c0.2,0.2,0.4,0.3,0.8,0.4V43H40v-0.2c0.3-0.1,0.5-0.2,0.6-0.3c0.1-0.2,0.2-0.4,0.2-0.7c0-0.1,0-0.3,0-0.5
	l-0.6-4L37.9,43h-0.3l-2.3-5.8l-0.6,4.1c0,0.2,0,0.3,0,0.4c0,0.6,0.3,0.9,0.9,1V43h-2.5v-0.2c0.4,0,0.7-0.1,0.8-0.4
	c0.2-0.2,0.3-0.6,0.4-1.2l0.7-4.6c-0.3-0.3-0.6-0.5-1-0.5V36h2.5l1.8,4.6l1.9-4.6H42.6z"></path>
<path class="st2 svg-elem-11" d="M48.2,43v-0.2c0.3-0.1,0.5-0.1,0.6-0.2c0.1-0.1,0.2-0.2,0.2-0.3c0-0.1,0-0.3-0.1-0.5l-0.4-1.1h-2.5l-0.4,0.9
	c-0.1,0.2-0.1,0.4-0.1,0.6c0,0.3,0.2,0.5,0.7,0.7V43h-2.3v-0.2c0.3,0,0.5-0.2,0.7-0.4c0.2-0.2,0.4-0.6,0.6-1.2l2-5.4h1l2.1,5.6
	c0.2,0.5,0.4,0.8,0.6,1c0.2,0.2,0.4,0.3,0.7,0.3V43H48.2z M46.1,40.1h2.1l-1.1-2.8L46.1,40.1z"></path>
<path class="st2 svg-elem-12" d="M57,37.4l-1.3,1.2l2.8,3.5c0.2,0.3,0.4,0.5,0.6,0.6c0.1,0.1,0.3,0.2,0.5,0.2V43h-3.2v-0.2
	c0.3-0.1,0.5-0.2,0.5-0.3c0-0.1,0-0.2-0.1-0.3l-2.2-2.7v2.3c0,0.3,0,0.6,0.1,0.7c0.1,0.1,0.3,0.2,0.7,0.4V43H52v-0.2
	c0.4-0.1,0.6-0.2,0.7-0.3c0.1-0.1,0.2-0.4,0.2-0.7v-4.6c0-0.3-0.1-0.5-0.2-0.7c-0.1-0.1-0.4-0.2-0.7-0.3V36h3.3v0.2
	c-0.3,0.1-0.6,0.2-0.7,0.3c-0.1,0.1-0.2,0.3-0.2,0.6v2.1l2.2-2.1c0.1-0.1,0.2-0.3,0.2-0.4c0-0.2-0.2-0.4-0.7-0.5V36h2.9v0.2
	c-0.3,0-0.7,0.1-1,0.3C57.8,36.6,57.4,36.9,57,37.4z"></path>
<path class="st2 svg-elem-13" d="M64.6,38.4h0.2v2.2h-0.2c-0.1-0.6-0.4-0.9-1-0.9h-1.2v2.1c0,0.3,0.1,0.5,0.2,0.7c0.1,0.1,0.4,0.2,0.7,0.2h0.4
	c0.7,0,1.2-0.4,1.5-1.3h0.2L65.3,43H60v-0.2c0.4-0.1,0.6-0.2,0.7-0.3c0.1-0.1,0.2-0.4,0.2-0.8v-4.5c0-0.3-0.1-0.6-0.2-0.7
	c-0.1-0.1-0.4-0.2-0.7-0.3V36h5.3v1.6h-0.2c-0.1-0.5-0.3-0.8-0.4-0.9c-0.2-0.2-0.4-0.2-0.8-0.2h-1.4v2.9h1.2c0.3,0,0.5-0.1,0.6-0.2
	C64.4,38.9,64.6,38.7,64.6,38.4z"></path>
<path class="st2 svg-elem-14" d="M66,43v-0.2c0.6,0,0.9-0.3,0.9-0.9v-4.8c0-0.3-0.1-0.5-0.2-0.7c-0.1-0.1-0.4-0.2-0.7-0.3V36h3.3
	c0.9,0,1.5,0.2,2,0.5c0.5,0.3,0.7,0.7,0.7,1.3c0,0.4-0.1,0.7-0.4,1c-0.2,0.3-0.6,0.5-1,0.6v0c0.2,0,0.3,0.2,0.5,0.4
	c0.2,0.2,0.5,0.7,0.8,1.4c0.4,0.7,0.6,1.1,0.8,1.3c0.2,0.2,0.4,0.3,0.7,0.3V43h-2c-0.3-0.3-0.6-0.9-1-1.7c-0.3-0.6-0.5-0.9-0.6-1.1
	c-0.1-0.2-0.3-0.3-0.4-0.4c-0.1-0.1-0.4-0.1-0.9-0.1v2.2c0,0.3,0.1,0.5,0.2,0.7c0.1,0.1,0.4,0.2,0.7,0.3V43H66z M69,36.4h-0.5v2.9
	c0.1,0,0.2,0,0.3,0c0.6,0,1-0.1,1.2-0.4c0.3-0.2,0.4-0.6,0.4-1.1C70.4,36.8,69.9,36.4,69,36.4z"></path>
</svg>
